<?xml version="1.0" encoding="UTF-8" standalone="no"?>
<svg
   viewBox="0 0 640 640"
   version="1.1"
   id="svg1"
   sodipodi:docname="javascript copy.svg"
   inkscape:version="1.4.2 (ebf0e940, 2025-05-08)"
   xmlns:inkscape="http://www.inkscape.org/namespaces/inkscape"
   xmlns:sodipodi="http://sodipodi.sourceforge.net/DTD/sodipodi-0.dtd"
   xmlns="http://www.w3.org/2000/svg"
   xmlns:svg="http://www.w3.org/2000/svg">
  <defs
     id="defs1" />
  <sodipodi:namedview
     id="namedview1"
     pagecolor="#ffffff"
     bordercolor="#000000"
     borderopacity="0.25"
     inkscape:showpageshadow="2"
     inkscape:pageopacity="0.0"
     inkscape:pagecheckerboard="0"
     inkscape:deskcolor="#d1d1d1"
     inkscape:zoom="0.4863256"
     inkscape:cx="288.9011"
     inkscape:cy="407.13464"
     inkscape:window-width="1104"
     inkscape:window-height="695"
     inkscape:window-x="728"
     inkscape:window-y="539"
     inkscape:window-maximized="0"
     inkscape:current-layer="svg1" />
  <!--!Font Awesome Free 7.0.0 by @fontawesome - https://fontawesome.com License - https://fontawesome.com/license/free Copyright 2025 Fonticons, Inc.-->
  <path
     d="m 296.6603,191.44294 c 6.17844,-10.94466 -25.47283,-14.73999 -4.14838,-3.86593 1.9771,0.65314 1.53578,4.625 4.14838,3.86593 z M 124.06999,98.466248 c -13.45135,-17.56442 25.27865,2.948002 11.63312,-15.4461 -11.50955,-9.16174 -22.56013,10.32682 -11.63312,15.4461 z m 28.17369,22.065862 c 19.10021,-2.54199 -4.85449,-8.22615 -3.83064,-0.22949 z m -15.09305,-3.6188 c 4.09542,-5.5606 -7.18464,2.82443 0,0 z m 30.45089,33.52245 c 11.8626,0.28244 -5.10163,-15.92273 9.02052,-8.59686 -2.3125,-7.573 -16.4523,-8.98522 -23.38981,-12.00383 -3.88359,6.91985 7.94371,20.68895 14.33398,20.60069 z m -36.92942,-1.51814 c 10.15029,-7.66126 35.02293,4.53674 19.0649,-7.6083 -1.53579,-1.35926 -34.98763,9.2147 -19.0649,7.6083 z m -10.41509,19.91223 c 17.77625,-6.03721 42.06635,-12.81585 50.45138,2.98331 -8.5439,-10.27387 -3.44227,-20.38885 4.625,-5.36642 11.38598,15.19896 17.0878,-6.9022 9.65602,-12.02148 8.45564,10.50335 18.0587,15.4461 5.66651,0.65315 13.45135,-16.18751 -26.9733,2.13598 -36.17035,1.9418 -4.41317,1.9771 -45.68515,10.521 -34.21091,11.80964 z m 33.08114,55.32352 c 4.34256,-5.36642 -5.94896,-1.42987 0,0 z m -10.36213,27.73237 c -1.05916,-6.39028 -3.08922,3.38931 0,0 z m -8.77339,-4.44848 c 9.92081,-0.65315 15.56967,-10.96232 -1.92414,-10.36213 -27.13218,-2.80677 23.91939,9.26766 -3.47758,5.82539 -3.68941,2.41842 5.20754,5.22519 5.40172,4.57205 z m 423.66444,269.11518 c 12.28627,0 37.22952,-3.81298 10.4857,-3.81298 -4.18369,0.67081 -24.46662,0.52958 -10.50335,3.81298 z m -58.88935,-34.58161 c 1.32395,-9.00287 -5.94896,0.81203 0,0 z m 46.16177,31.54535 c 0.26479,-7.83779 -6.70802,3.53054 0,0 z M 90.671115,229.16673 c 8.80869,-6.72567 -10.39743,-2.55964 0,0 z m 33.522445,23.83113 c 5.40172,-5.73713 -11.70373,-2.33016 0,0 z m -11.35068,-3.17749 c 15.37549,-9.42653 -16.346375,-8.15554 0,0 z m 113.7186,-71.58164 c 5.13694,-13.5043 19.98284,-5.40172 2.38312,-2.71851 0.3707,1.42987 -0.52958,6.97281 -2.38312,2.71851 z m -14.12214,0.0883 c -1.21804,-26.77913 24.67845,9.53245 0,0 z m -49.63935,7.64361 c 8.15554,-9.79724 46.21473,-6.24905 18.35879,-0.95324 -7.44943,-5.63121 -13.18656,3.30105 -18.35879,0.95324 z m -3.44228,2.29485 c 4.8898,-5.73712 1.41222,5.06632 0,0 z m -13.39839,5.40172 c 0.70611,-9.07348 22.45422,4.80153 3.60115,3.26575 z m -9.81489,-0.17653 c 7.71422,-5.73712 4.09542,3.21279 0,0 z m -1.04151,9.58541 c 5.36642,-19.71805 28.68562,16.20517 8.77338,2.59495 -2.13597,-1.67701 -4.85448,-2.68321 -7.82014,-2.68321 -0.3354,0 -0.6708,0.0177 -1.0062,0.0353 h 0.0353 z m -55.023415,28.01478 c -2.04771,-11.80964 -1.76527,-32.51624 17.91748,-25.50813 -26.2672,5.20755 18.182255,32.63982 12.568705,10.97997 11.03292,0.52958 21.62454,-6.53149 15.79915,4.18369 21.76576,-2.41842 36.84116,-21.27149 57.88316,-18.64124 19.1002,-1.58874 36.75289,-5.27815 53.54059,-10.8564 l -1.60639,0.45897 c 14.51051,-1.05916 28.45613,-16.68178 20.51242,-25.91414 -3.84829,-0.22948 -8.34972,-0.3707 -12.88646,-0.3707 -17.52912,0 -34.59926,2.0124 -50.98096,5.80773 l 1.51813,-0.3001 c -24.21948,5.03102 -46.23238,14.59877 -70.699,18.7295 -23.831125,3.19514 4.78387,8.82634 -2.03006,10.06203 -12.44515,4.32491 14.82825,7.2376 -1.6064,11.77434 -10.15029,-1.94179 -20.741895,-5.41937 -16.38169,-16.09925 -22.824915,2.93035 -42.913675,12.42749 -24.854975,35.64078 h 1.32395 z m 38.306325,25.6317 c 1.21803,-8.38502 -9.03818,1.65935 0,0 z m 401.08665,259.24734 c 2.9127,-8.64982 -7.36117,1.09446 0,0 z m -43.54917,-22.57779 c 7.27291,-6.69037 -9.26766,-2.06536 0,0 z M 115.5967,270.84472 c 11.42129,-4.48378 -20.741895,-9.26766 -2.29485,-0.88263 z m -26.902685,-16.0816 c -0.77672,-7.06107 -4.18369,0.88264 0,0 z m -4.85449,3.67176 c -0.44132,-5.94895 -3.17748,2.24189 0,0 z m 32.781035,21.27149 c -1.53579,-12.90411 -18.535315,-1.9418 0,0 z m 63.53202,46.93849 c 2.6832,-2.47138 -6.39028,-1.83588 0,0 z M 122.67543,289.8037 c -2.6479,-2.13597 -2.06537,2.68321 0,0 z m -9.12644,-4.46612 c 0.19418,-5.50764 -14.634075,-4.94276 0,0 z m -15.975675,-4.02482 c -3.03626,-17.0878 -11.58016,-2.59494 0,0 z m 66.991935,46.51483 c 0.19418,-8.98522 -6.99046,-0.3354 0,0 z m 302.7259,188.56598 c 11.29771,-2.29485 37.01768,5.73712 41.16606,-3.00096 -13.68083,-0.3354 -47.43277,-9.65602 -49.02151,2.20659 l 3.00096,0.51193 z M 156.48033,325.79753 c -0.15888,-2.93035 -2.68321,1.09447 0,0 z m -25.50814,-12.35688 c 8.80869,-2.9833 -8.10258,-1.9771 0,0 z m 203.60607,137.44381 c -0.15887,-8.844 -8.72042,2.20658 0,0 z M 136.40922,325.99171 c 13.68083,-5.29581 -14.65173,-3.74237 0,0 z m 264.9315,170.29545 c 4.76622,-3.53054 -5.94896,-0.44132 0,0 z M 351.66606,464.9713 c -0.88263,-3.42462 -3.45992,0.65315 0,0 z m -6.03721,-4.39552 c -2.38312,-6.12548 -9.44419,-0.14122 0,0 z M 220.31243,381.52706 c 0,-8.93226 -15.99333,-3.6188 0,0 z m -14.4752,-3.35401 c -5.86069,-4.9251 -0.28244,-0.70611 0,0 z m -95.37746,-58.8011 c 2.03006,-8.45563 -18.817755,-46.47952 -9.83254,-19.0649 3.21278,5.73712 2.85973,16.62883 9.83254,19.0649 z m 51.96951,41.02484 c 11.40363,2.55964 45.57923,28.10308 25.41987,1.76527 -10.32682,-3.03626 -4.13073,-28.29725 -14.66938,-23.83112 7.06107,11.80964 5.82538,16.823 -9.03818,9.39122 -18.64124,-9.10878 -10.45039,4.50144 -6.83159,8.24381 -4.94275,1.14742 6.60211,4.32491 5.13693,4.41317 z M 447.97911,544.2142 c 8.50859,-5.68416 -10.34447,-1.83588 0,0 z m -30.45088,-20.24763 c 12.65697,-10.62691 -13.39839,4.69562 0,0 z m 5.94895,2.87739 c 15.55202,-11.24476 -9.44418,-2.15363 -3.26574,2.11832 z M 249.3511,423.50514 c -3.19513,-6.54915 -4.94275,1.04151 0,0 z m -10.15029,-5.87834 c -0.44132,-5.29581 -6.42558,0.44131 0,0 z m 164.78781,103.9037 c 12.1627,-7.83779 -2.77147,-6.61976 -2.20659,0.70611 z M 154.60914,364.26273 c 3.60115,-5.33111 -9.26766,-0.68845 0,0 z m 253.36898,162.4047 c 12.56872,-10.76814 -7.9437,-2.25954 0,0 z m -19.1002,-7.50239 c 25.03151,-16.18751 -10.27386,-7.06107 0,0 z M 123.5051,352.96501 c -11.59781,-16.54056 -7.21994,-24.00765 -18.41175,-37.4943 -2.11832,-10.36213 -19.188455,-33.82255 -8.826335,-8.94991 9.479485,14.52816 12.303915,37.03533 27.238085,46.46186 z m 269.62712,170.78973 c 13.61022,-14.42224 -13.18656,0.86498 0,0 z m -0.0177,4.625 c 0.0706,-3.30105 -5.2958,1.44752 0,0 z m -25.59635,-17.54677 c 12.30392,-10.32682 -11.91556,4.5897 0,0 z M 255.08822,441.35201 c 7.97902,7.06107 36.66463,5.20754 9.70898,0.88263 -4.00716,-5.94896 -25.38456,-4.50143 -9.70898,-0.88263 z m -81.8555,-49.33926 c -5.33111,-8.86165 -19.0649,-8.03197 0,0 z m -14.36928,-9.44419 c -2.20659,-8.66746 -15.44611,-8.59685 0,0 z M 372.6551,516.85254 c 7.16699,-6.95516 0.28244,11.10354 11.91556,-1.69466 0.10592,-9.16174 -0.3707,-14.56346 -13.36308,-3.44227 -3.56584,1.9771 -5.15458,10.43274 1.44752,5.13693 z m -13.469,-5.66651 c 0.44132,-6.17844 -4.25429,5.2958 0,0 z M 228.15023,431.8019 c 31.10403,10.00908 -15.25192,-12.26861 0,0 z m -25.5964,-14.70468 c 7.50239,5.57824 28.2443,15.85211 10.67988,2.11832 5.9313,-6.88455 -11.33303,-10.53865 -5.5959,-15.12835 -14.56347,-8.91461 -11.47425,-8.12024 -1.271,-7.85545 -17.51146,-7.80248 2.50668,-7.2376 1.53579,-11.24476 -6.72568,-1.32395 -33.52245,-11.91556 -17.74095,0.88264 -16.01099,-8.15554 -3.81298,3.03626 -8.64982,1.85353 -16.38169,-4.44848 14.56347,12.46279 -2.59494,8.27911 9.37357,7.43178 25.27864,19.0649 3.97185,7.8731 -2.82443,4.04246 15.21662,10.15029 19.68275,13.23951 z m 48.33305,32.07493 c 13.57492,3.53053 13.50431,-2.10067 1.21804,-3.74237 -6.61976,-6.17844 -27.48523,-12.69228 -8.82634,-0.77672 1.25334,3.12452 5.18989,3.07156 7.59065,4.53674 z m -24.48427,-12.35688 c -2.82443,-2.45373 0.35305,1.53578 0,0 z m 11.89791,-234.10991 c 2.06536,-2.54199 0.44132,3.07156 0,0 z m -7.11403,42.4194 c -4.76623,-8.38503 6.00191,-36.91177 7.18464,-19.18847 -5.01336,13.78675 -1.42987,21.50097 2.04771,3.00096 6.46089,-14.56347 -1.39456,28.73857 -9.26766,16.20516 z m -6.91985,11.24476 c -1.16508,-7.06108 3.97185,8.9146 0,0 z m 4.25429,11.24476 c -6.9375,-17.12311 6.44323,9.03817 0,0 z m 2.89504,6.40792 c -0.053,-3.68941 0.95325,5.33111 0,0 z m -49.92179,-27.78532 c 4.53674,-9.56776 8.38503,10.66222 0,0 z m -17.68799,-10.53866 c 2.84208,-1.21803 1.50048,3.79533 0,0 z m 75.60645,59.03058 c 2.57729,-20.83016 2.2772,12.19801 0,0 z m -67.82162,-39.78915 c 3.72472,-5.47233 -9.92081,-24.71376 1.95945,-6.9022 5.11928,4.07777 14.82826,6.83159 6.24905,8.5439 13.45135,11.89791 -3.30105,3.21279 -8.2085,-1.62405 z m 71.70521,45.50862 c 0.9709,-18.30583 5.47233,-10.92701 0.0353,2.59495 z m -78.51914,-39.15365 c 9.16174,-1.9418 37.90031,16.08159 11.47424,5.15458 -2.91269,-3.26574 -9.17939,-1.76527 -11.47424,-5.17223 z m 83.63842,57.83019 c 2.85973,-10.1856 0.21183,6.72568 0,0 z m -37.10595,-23.79582 c -1.44752,-17.86451 3.2481,2.948 0,0 z M 162.42928,269.3972 c -15.37549,-21.23618 44.71425,21.46567 9.86785,5.38407 -3.63645,-0.95325 -8.03197,-1.32395 -9.86785,-5.38407 z m 84.8388,57.51245 c 1.18273,-4.85449 0.15888,5.68416 0,0 z m 4.41318,4.37786 c 1.05916,-11.31537 2.18893,7.71423 0,0 z m -25.36691,-15.00478 c -10.36213,-6.21374 -2.71852,-43.761 0.81202,-18.094 10.07968,-3.26575 -0.54723,13.23951 6.95516,13.09829 -1.16508,10.43274 -4.53674,14.19276 -7.71422,4.97806 z m -68.59834,-39.87741 c -23.9547,-21.30679 30.11548,11.15649 3.90125,3.97185 z M 173.0915,291.11 c -7.2376,-13.61022 8.82634,5.68417 0,0 z m -7.73187,-2.48903 c 4.78387,-4.74857 2.54198,4.67797 0,0 z m -12.56872,0.33541 c -8.2438,-8.15555 -14.21041,-15.72855 0.37071,-5.06633 5.63121,0.21184 -12.48045,-17.15841 1.32395,-5.50763 14.56347,2.6479 7.21995,23.86643 -1.69466,10.59161 z m 23.91939,18.51766 c 4.76623,-10.04438 8.06728,13.98093 0,0 z m -9.93846,-3.40697 c 0.88263,-13.31012 5.06632,9.10879 0,0 z m 22.13647,15.23427 c -4.62501,-7.9084 -7.36117,-17.4232 -7.36117,-27.57349 0,-0.0177 0,-0.0353 0,-0.053 v 0 c 1.677,8.33207 17.74095,35.88791 7.8731,11.42129 -10.89171,-20.51242 13.01002,6.65506 15.4814,11.77434 1.09447,5.06632 -6.72567,-1.39457 -1.41221,10.53865 -9.70898,-13.61022 -5.73713,7.50239 -14.58112,-6.12548 z m 71.59929,47.76817 c -7.76718,-17.4232 5.50764,-9.53245 1.71231,2.85973 z m -41.51912,-13.32778 c -3.42462,-6.12548 7.13169,5.73712 0,0 z m 48.35071,33.64602 c 2.96565,-11.12119 3.49523,9.35592 0,0 z M 198.88207,350.2818 c 4.83684,-1.32395 2.38312,8.24381 0,0 z m 86.02154,59.38364 c -8.2085,-15.88742 10.36213,4.50143 0,0 z m 7.11403,9.5501 c -0.21183,-10.32682 2.36546,7.94371 0,0 z m 81.74958,62.1198 c 4.07777,-0.24714 0.14122,3.08922 0,0 z m -71.44041,-45.38506 c -6.53149,-6.83159 -8.22615,-19.62978 -1.16508,-8.49094 3.6188,1.44752 11.58016,20.88313 1.16508,8.49094 z m 21.94229,61.94328 c 17.05249,-10.1856 11.42128,23.86643 28.91509,2.85973 17.24667,-12.56871 -14.88121,15.58732 6.39027,2.2772 15.35784,-10.30917 38.07684,4.85449 52.41082,9.81489 10.32682,-0.51193 20.35355,8.93226 30.94516,3.19514 20.35355,-5.50764 -39.84211,-8.15554 -24.04296,-17.86452 -2.43607,0.54723 -5.24284,0.86498 -8.12023,0.86498 -14.21041,0 -26.6379,-7.67892 -33.36358,-19.1002 l -0.10591,-0.17653 c -22.93084,-3.79533 -42.40175,-16.24047 -55.35882,-33.78724 l -0.15887,-0.22949 c -4.23665,-6.95515 6.17844,0.9709 -3.65411,-10.36212 -10.69752,-10.76814 -19.82396,-23.14267 -26.95565,-36.69993 l -0.40601,-0.82968 c -10.07968,-5.38407 -11.24476,-21.23618 -12.28627,-0.52958 0.0883,-13.08064 -12.198,-21.88933 -15.18131,-18.21757 -0.0353,-12.60402 13.1336,-6.28436 3.88359,-15.60498 -1.9771,-13.06298 -8.50859,-26.69086 -10.48569,-41.41319 -3.03626,-7.09638 -0.44132,-22.29535 -10.43274,-6.21375 -3.63645,16.98188 -1.21803,-20.88313 4.44848,-8.38503 7.43178,-12.79819 -2.6479,-11.24476 -3.08922,-9.47949 4.85449,-10.76814 3.08922,-26.03771 -1.25334,-20.21232 2.57729,-11.40364 4.07777,-41.96043 -3.86594,-36.52341 4.80153,-11.91556 9.12644,-54.54679 -11.77434,-38.28867 -10.94467,0.44132 -21.21853,2.80678 -30.64506,6.74332 l 0.58254,-0.21183 c 21.7481,11.98618 -2.20659,4.32491 -11.03293,2.41842 -1.14743,11.06823 -9.92081,6.28436 -20.86548,6.39027 17.49381,2.15363 -8.50859,17.86452 -18.55297,11.77434 -13.01003,6.21375 11.24476,21.76576 0.26479,26.58495 1.32395,7.2376 -19.96519,-2.64791 -18.30584,14.12215 -12.63932,-5.31346 -1.71231,19.85927 4.60735,11.33302 21.50098,5.82539 15.12836,19.1002 15.65794,31.70422 -3.47758,7.34352 -17.29964,-17.26432 -3.08922,-16.13455 -11.19181,-18.23523 -12.37454,-6.61976 -21.71281,1.87118 -2.20658,0.61785 23.79583,12.07444 7.50239,17.70564 14.33399,2.20659 14.74,14.7753 17.65269,22.71901 8.59686,8.98522 6.83159,-9.92081 17.17607,0.88263 -6.5315,-9.62071 -34.56397,-27.09687 -12.00383,-21.48331 -0.10592,-9.70898 -4.07777,-17.49381 2.84208,-17.29963 6.83159,-12.39219 -7.16699,30.5921 8.27911,14.82825 4.2543,-1.87118 5.29581,-12.42749 13.01003,0.98855 11.13885,10.97997 4.00716,18.92368 -11.72138,8.89695 2.80678,9.55011 21.042,12.95708 17.61738,27.9089 3.63645,13.1336 8.72042,8.29676 13.15125,7.5377 3.47758,12.74524 5.45468,3.37166 5.6312,-2.71852 15.88742,3.42462 12.18036,12.7982 17.15841,19.41796 10.96232,4.94275 -15.71088,-33.57541 3.12453,-11.59782 19.80631,17.86452 7.43178,25.36691 -10.36213,22.50718 11.24476,-0.90029 14.89887,15.21661 28.96806,14.65172 12.8335,6.10783 21.50097,29.56825 -0.60019,19.78866 -7.67892,-6.9022 -34.8464,-15.44609 -12.63932,-2.29484 22.63074,9.26766 41.21902,18.34114 59.13649,28.43847 l -2.6479,-1.35926 c 14.12215,10.09734 20.24763,21.65985 25.59639,23.9547 -11.8626,5.66651 -35.79964,-4.53674 -18.02339,-7.67892 -11.10354,-2.01241 -23.56633,-7.60831 -12.95707,6.17844 9.03817,7.573 31.98666,6.74333 36.11739,7.60831 -3.51288,7.67891 -9.47949,8.29676 0.14122,8.89695 -10.71518,5.73712 3.44228,6.61976 4.43083,9.8855 z m -63.44375,-38.99479 c 18.23522,2.33016 -21.73046,-12.42749 -3.98951,-1.32395 z m 48.6508,33.02818 c 15.83445,-6.28436 -15.4461,-3.08922 0,0 z M 215.93457,433.7437 c 10.15029,-1.09447 -16.32874,-6.8669 0,0 z m 55.27056,35.12884 c 1.32395,-5.63121 -11.65078,-1.69466 0,0 z m 80.83164,52.34021 c -0.21184,-4.34256 -4.04246,1.65936 0,0 z m -74.24719,-45.54392 c -2.50668,-2.85974 -1.20039,0.61784 0,0 z m -119.2792,-75.78298 c -1.69465,-6.54915 -14.86356,-11.77434 0,0 z m 45.43802,29.39172 c 13.68083,-0.81202 -18.71185,-6.01957 0,0 z m 38.34163,27.66176 c -1.41222,-4.219 -7.41413,-0.17653 0,0 z m 102.13843,63.00243 c 0.61785,-8.01432 -7.78483,5.94895 0,0 z M 201.7065,432.03139 c -0.91794,-4.41317 -5.86069,0.40601 0,0 z m 102.43854,65.29728 c 23.83112,0.21183 -21.50097,-3.24809 0,0 z m -43.53153,-25.15508 c 25.15508,7.13169 -21.13026,-15.88741 -6.19609,-2.59494 l 3.30105,1.50048 2.85974,1.09446 z m 21.71281,17.28198 c 4.25429,-7.2729 -17.97044,-4.18368 0,0 z M 210.8506,445.81813 c 10.27386,7.89076 41.46615,1.00621 15.74619,-4.69561 -11.68608,-6.24905 -38.09449,-10.50335 -20.12406,3.74237 z m 57.00052,39.1007 c 9.47949,-3.56584 -15.35784,-3.60115 0,0 z m -21.3068,-13.08064 c 6.61976,-4.625 -13.69848,-3.53053 0,0 z m -25.3669,-14.77529 c -0.88264,-3.68942 -13.59257,-4.07778 0,0 z m 86.49815,67.38029 c 8.75573,5.50764 51.17513,12.1274 24.59019,2.2772 -4.41317,0.91794 -49.19803,-12.65697 -24.62549,-2.2772 z m -54.49384,-34.01672 c -0.30009,-3.65411 -3.88359,1.65935 0,0 z m -10.8917,-5.43703 c 10.75048,-6.95515 -13.89267,-0.0883 0,0 z m 47.80347,33.38123 c 4.21899,-6.21374 -13.45135,-2.36546 0,0 z m -24.87263,-13.89266 c 6.88454,-6.61976 -10.67988,-4.14838 0,0 z m -14.54582,-6.07253 c -1.18273,-5.84304 -5.2958,3.26575 0,0 z m -11.61546,-4.23664 c 4.74857,-2.11832 -6.83159,-2.6479 0,0 z m -87.22192,-77.14223 c 0.72376,-3.21279 3.90124,6.99046 0,0 z m 61.62552,67.66274 c 21.39506,7.92605 -0.0883,-15.04009 -9.92081,-13.71614 -4.3249,-7.52004 -16.55821,-12.28627 -7.9437,-16.32873 -15.53437,5.38407 -16.25813,-20.51242 -23.60164,-16.82301 -16.417,-5.18989 -6.39028,-23.60164 -25.94946,-34.8464 -1.78292,-11.91556 -19.45326,-22.24238 -25.10211,-40.19517 -2.48903,-9.17939 -19.96519,-35.58781 -9.21471,-11.03292 11.43894,24.46662 24.3254,45.52627 39.20662,64.96188 l -0.60019,-0.82968 c 9.62071,20.81252 23.76051,38.0945 41.23667,51.15748 l 0.35306,0.24714 c 6.39027,6.14313 12.5334,15.51671 21.55393,17.4232 z m 41.99574,29.69181 c 19.59448,10.07969 42.33114,17.93513 66.25053,22.38361 l 1.55343,0.24714 c 23.00145,5.27815 49.40986,8.29676 76.54204,8.29676 14.08684,0 27.99716,-0.81203 41.66034,-2.40077 l -1.65935,0.15888 c -17.4232,-7.8731 -35.46425,3.08922 -52.83449,-5.63121 -6.17844,0.70611 -13.34543,1.09447 -20.60068,1.09447 -15.51671,0 -30.60976,-1.81823 -45.0673,-5.2605 l 1.32395,0.26479 c -28.79153,-10.4857 -52.72857,-21.28914 -75.76533,-33.57541 l 3.15983,1.53578 c -28.17368,-10.27386 14.56347,13.18656 22.17178,15.1107 17.59972,9.99142 -19.34735,-5.13693 -24.57254,-9.28531 -14.73999,-8.27911 -16.62883,-6.54915 -1.44752,1.85353 3.07157,1.76527 6.09017,3.65411 9.26766,5.18989 z m -35.62312,-15.4461 c -21.6775,-14.91651 -40.24812,-32.2691 -55.97666,-51.98715 l -0.40601,-0.51193 C 133.86723,410.12441 109.77132,367.86388 93.354325,321.9669 l -0.93559,-2.96565 c -9.83255,-29.886 -13.23952,-61.94328 -25.89649,-90.6642 -2.55964,-4.69561 -4.06012,-10.29151 -4.06012,-16.24047 0,-17.15841 12.55106,-31.40412 28.96806,-34.03437 l 0.19418,-0.0177 c 10.150285,-1.92415 28.067755,-11.50956 6.46088,-4.66031 -19.365,14.21041 -21.23618,-12.90412 -1.39456,-14.59877 8.632155,-0.0883 15.604965,-7.09638 15.604965,-15.7462 0,-2.59494 -0.6355,-5.04867 -1.74762,-7.21995 l 0.0353,0.0883 c -14.563465,-9.4795 35.28772,-19.91223 10.2209,-34.05203 -26.090655,-28.208992 36.55872,-33.610722 21.11262,-1.62405 -3.68942,24.59019 43.76101,-4.519092 32.76338,23.88408 11.19181,13.66318 41.90748,3.08922 41.14841,22.26004 16.32874,1.09446 21.90698,14.82825 37.21186,15.88741 15.88742,7.16699 44.60834,12.7982 49.99241,30.66272 -15.72854,12.48047 -52.14603,-25.70229 -53.89364,8.7734 0.40601,54.28201 8.47329,106.5163 23.16032,155.90852 l -1.0062,-3.97186 c 11.8273,29.37407 28.59735,54.45854 49.49813,75.39462 v 0 c 19.04724,21.21853 41.94277,38.51816 67.68039,50.91035 l 1.3063,0.56488 c 20.47711,9.67367 44.27293,17.29963 69.16322,21.6775 l 1.71231,0.24714 c 9.8855,-7.57301 27.36166,-35.67608 42.7548,-23.83113 0.72376,13.32778 -30.62741,27.85594 -1.48283,26.39077 17.12311,-5.15459 28.98571,13.23951 43.09021,-3.35402 12.97472,15.37549 53.96426,-9.83254 44.71425,21.62454 -12.48045,8.03198 -30.69802,3.17749 -43.21377,14.24572 -20.61834,-10.30917 -37.05299,9.2147 -59.89556,6.74333 -22.43657,4.07777 -48.26244,6.40792 -74.63556,6.40792 -0.77671,0 -1.57108,0 -2.3478,0 h 0.12357 C 364.782,549.86306 321.74476,542.81964 281.07298,530.3745 l 3.30105,0.86498 c -24.60784,-8.31442 -45.94994,-19.25908 -65.31494,-32.834 l 0.81203,0.54724 z"
     id="path1-8"
     style="stroke-width:17.6527" />
</svg>
