<?xml version="1.0" encoding="UTF-8" standalone="no"?>
<svg
   viewBox="0 0 640 640"
   version="1.1"
   id="svg1"
   sodipodi:docname="python copy.svg"
   xml:space="preserve"
   inkscape:version="1.4.2 (ebf0e940, 2025-05-08)"
   xmlns:inkscape="http://www.inkscape.org/namespaces/inkscape"
   xmlns:sodipodi="http://sodipodi.sourceforge.net/DTD/sodipodi-0.dtd"
   xmlns="http://www.w3.org/2000/svg"
   xmlns:svg="http://www.w3.org/2000/svg"><defs
     id="defs1" /><sodipodi:namedview
     id="namedview1"
     pagecolor="#ffffff"
     bordercolor="#000000"
     borderopacity="0.25"
     inkscape:showpageshadow="2"
     inkscape:pageopacity="0.0"
     inkscape:pagecheckerboard="0"
     inkscape:deskcolor="#d1d1d1"
     inkscape:zoom="0.31966391"
     inkscape:cx="286.23813"
     inkscape:cy="261.21185"
     inkscape:window-width="1504"
     inkscape:window-height="992"
     inkscape:window-x="1151"
     inkscape:window-y="476"
     inkscape:window-maximized="0"
     inkscape:current-layer="svg1" /><!--!Font Awesome Free 7.0.0 by @fontawesome - https://fontawesome.com License - https://fontawesome.com/license/free Copyright 2025 Fonticons, Inc.--><path
     d="m 466.77512,207.68212 q 15.71564,7.25338 32.03572,18.13343 33.84906,21.76011 48.3558,50.77359 a 78.844134,78.844134 0 0 1 8.8733,35.52943 75.664738,75.664738 0 0 1 -5.24661,27.33312 q -12.6934,32.64016 -50.77359,58.02695 -44.72911,30.22238 -108.80056,41.10244 -69.51147,12.08894 -139.62737,0 -59.8403,-10.88006 -102.75607,-36.26686 16.92453,9.67116 42.91577,18.13343 1.20889,1.2089 4.23113,1.2089 3.02223,0 3.02223,1.20888 8.46227,2.4178 25.3868,6.04448 h 4.23113 q 3.62669,0 3.62669,1.2089 a 74.588823,74.588823 0 0 0 15.29253,2.49033 796.91568,796.91568 0 0 0 10.69871,1.13635 q 1.81335,1.2089 5.44003,0 a 6.7577232,6.7577232 0 0 1 2.0793,-0.39893 1.9825878,1.9825878 0 0 1 2.15183,1.60783 q 19.34233,1.20889 29.01349,1.20889 1.81334,1.2089 5.44002,0 3.62669,-1.20889 5.44004,0 10.2756,0 29.61792,-1.20889 a 2.4782348,2.4782348 0 0 0 1.40232,0.39894 7.8336396,7.8336396 0 0 0 4.0377,-1.60784 q 3.62669,-2.41779 4.83559,0 3.02223,0 9.0667,-0.60444 6.04448,-0.60445 9.67117,-1.81335 4.83558,0 9.06672,-1.20889 2.41778,1.20889 5.44002,-1.2089 3.02223,-2.41778 5.44003,-2.41778 3.62668,1.20889 5.44003,1.20889 1.81333,0 5.44002,-2.41779 3.62669,-1.2089 5.44003,-1.2089 14.50675,-4.83558 16.32007,-6.04447 a 4.7267796,4.7267796 0 0 1 -0.0725,-0.77369 4.4970895,4.4970895 0 0 1 4.30366,-4.06189 q 4.83558,-1.2089 7.25337,2.41779 8.46227,-3.62669 15.71563,-6.04448 10.27562,-6.04447 10.88006,-6.04447 -0.60444,-4.83558 3.62669,-6.64892 a 8.6677772,8.6677772 0 0 1 3.39699,-0.77369 6.0082082,6.0082082 0 0 1 3.85637,1.37813 q 3.02225,0 7.85782,-3.62668 4.83558,-3.62669 6.64893,-4.83559 1.2089,-1.20888 4.83557,-3.02222 3.62669,-1.81335 4.23114,-3.02225 0.60445,-1.20889 0,-3.62668 a 8.3655535,8.3655535 0 0 1 -0.0725,-1.03965 5.7301624,5.7301624 0 0 1 4.30367,-5.60928 10.928411,10.928411 0 0 1 3.80801,-0.77369 6.286254,6.286254 0 0 1 4.04981,1.37815 q 9.67115,-8.46227 16.32007,-16.92454 a 1.3056067,1.3056067 0 0 0 1.66828,-1.12427 5.1619817,5.1619817 0 0 0 -1.06383,-2.50241 q -2.41779,-3.62669 -2.41779,-4.83558 a 9.4414699,9.4414699 0 0 1 -0.0846,-1.17263 6.6610115,6.6610115 0 0 1 3.71129,-6.08075 11.738371,11.738371 0 0 1 5.89942,-1.60782 12.983532,12.983532 0 0 1 3.16731,0.39894 q 6.04446,-12.08896 7.25336,-19.34233 a 2.3210784,2.3210784 0 0 0 0.79787,-1.60783 1.7891647,1.7891647 0 0 0 -0.19342,-0.80996 q -0.60445,-1.20889 -1.20889,-1.20889 -0.60446,0 -1.81335,-1.2089 -1.2089,-1.20889 -1.81334,-2.41779 -2.41779,-2.41779 0,-6.04448 2.41779,-3.62667 6.04448,-3.62667 0,-10.88007 -2.41779,-18.13343 a 9.1513356,9.1513356 0 0 0 -4.23113,-4.83558 q -3.62669,-2.41779 -2.41779,-4.83559 a 10.227252,10.227252 0 0 0 1.88587,-5.10153 3.4816177,3.4816177 0 0 0 -0.67698,-2.15183 q -6.64892,-10.88005 -9.06671,-12.08895 -3.62669,0 -3.62669,-6.04448 -1.20889,-1.20889 -3.62669,-4.83558 -1.81334,-3.62669 -4.23113,-4.83558 -2.41779,-2.41779 -4.83558,-2.41779 -0.60445,-2.41779 -9.06671,-9.67116 a 1.934232,1.934232 0 0 0 -1.81334,-1.20889 q -1.2089,0 -1.81335,-1.2089 h -1.81334 a 2.3452564,2.3452564 0 0 1 -0.60444,-2.41778 q -7.85782,-6.04449 -24.78236,-15.71565 z M 195.3782,229.44224 v 29.01347 a 2.3452564,2.3452564 0 0 1 0.0725,0.56819 2.8409032,2.8409032 0 0 1 -3.69922,1.84961 68.749859,68.749859 0 0 0 -42.60146,-16.28382 59.102877,59.102877 0 0 0 -8.17213,0.56818 q -6.64892,0 -12.6934,6.04448 a 10.880055,10.880055 0 0 0 -3.78383,7.5556 8.7523999,8.7523999 0 0 0 1.36604,4.53335 q 1.2089,3.62668 3.62669,4.83558 l 3.62669,1.81334 q 1.20889,0.60445 4.23114,1.20889 3.02222,0.60446 4.23112,0.60446 a 212.63254,212.63254 0 0 1 41.06617,12.8989 36.762497,36.762497 0 0 1 4.87184,2.81672 q 12.08895,8.46227 13.29785,25.3868 a 52.683644,52.683644 0 0 1 0.20551,4.63007 35.336001,35.336001 0 0 1 -12.29446,28.0101 q -16.32009,15.71563 -50.7736,15.71563 -25.38679,0 -50.773579,-10.88005 v -27.80459 q 0,-3.62668 0.604449,-4.83558 1.813336,0 3.022233,0.60446 1.208896,0.60444 2.417793,1.81333 l 2.417793,2.41779 a 79.001289,79.001289 0 0 0 41.936561,13.16487 66.114468,66.114468 0 0 0 11.85926,-1.07592 q 5.44003,0 10.2756,-3.62668 a 9.9854728,9.9854728 0 0 0 4.29159,-8.35347 13.201134,13.201134 0 0 0 -0.0605,-1.3177 q 0,-8.46226 -10.88006,-12.08895 -4.23113,-1.20889 -15.11119,-3.62667 -10.88005,-2.41779 -18.13342,-4.83559 -7.25337,-2.41779 -14.50674,-6.04447 -15.111186,-8.46227 -16.924522,-25.38679 -3.022241,-19.34233 9.066707,-31.43128 17.528975,-18.13343 49.564685,-18.13343 25.99125,0 48.35581,9.67117 z m 25.99123,-7.25337 h 23.57346 q 7.85782,0 23.57345,1.2089 36.26685,2.41778 51.98249,24.17789 15.11118,16.92453 13.90229,45.93801 -1.20889,33.84906 -27.20013,51.98249 -15.71564,12.08895 -46.54247,13.29785 H 234.06283 207.46714 V 222.18887 Z M 344.07228,358.79401 V 223.39777 h 35.6624 v 108.80054 h 59.23586 v 26.5957 z M 243.12954,247.57566 v 85.83154 h 9.06673 q 6.04446,0 9.0667,-1.20889 a 32.519276,32.519276 0 0 0 3.59042,0.20551 31.503804,31.503804 0 0 0 16.9608,-5.04109 q 9.67116,-6.04448 12.69339,-16.92453 a 57.700558,57.700558 0 0 0 3.34865,-19.54783 68.810304,68.810304 0 0 0 -2.13975,-16.71902 q -2.41779,-10.88005 -12.08896,-18.13342 -9.67115,-7.25337 -21.15566,-7.25337 h -9.67115 q -6.04448,0 -9.67117,-1.2089 z m 79.78707,120.8895 h 1.20891 q 2.41779,0 1.81333,2.4178 0.60446,1.20889 3.02224,1.20889 1.20889,2.41778 0,2.41778 -1.20889,0 -1.81334,-1.20888 h -1.2089 q 0,6.04447 0.60446,6.04447 1.81334,0 2.41778,1.2089 a 1.5836525,1.5836525 0 0 1 0.19342,0.67697 0.6286254,0.6286254 0 0 1 -0.79786,0.53192 4.2915773,4.2915773 0 0 1 -1.93424,0.48356 4.8234911,4.8234911 0 0 1 -2.90135,-1.08802 3.396995,3.396995 0 0 1 -1.61991,-2.68373 3.4574398,3.4574398 0 0 1 0.41102,-1.5474 7.507238,7.507238 0 0 0 -0.27805,-3.22774 1.2814287,1.2814287 0 0 0 -0.32641,0.80995 q -1.20888,-1.20888 -4.23113,0 a 2.7321027,2.7321027 0 0 0 -2.16391,2.34527 2.8892591,2.8892591 0 0 0 0.35058,1.28142 1.9221431,1.9221431 0 0 0 1.81333,2.4178 q 1.81335,0 3.02225,-1.2089 1.20888,-1.2089 1.20888,0 a 2.6353911,2.6353911 0 0 1 -2.69582,3.22774 9.4535588,9.4535588 0 0 1 -3.34864,-0.80995 4.1706878,4.1706878 0 0 1 -3.71131,-3.96518 5.2828713,5.2828713 0 0 1 0.0846,-0.87041 h -5.44003 -1.81334 a 1.1363613,1.1363613 0 0 0 -0.60445,0.94294 4.4003779,4.4003779 0 0 0 2.41779,2.68376 3.3486392,3.3486392 0 0 0 1.47486,0.39893 2.41779,2.41779 0 0 0 2.15183,-1.60783 q 1.81334,0 1.81334,2.41779 a 18.399382,18.399382 0 0 1 -4.98065,0.80995 6.0082082,6.0082082 0 0 1 -5.89939,-3.22774 l -1.20891,-4.83559 h -2.41779 v 6.04449 q 0.39894,1.60783 -0.544,1.60783 a 3.1189492,3.1189492 0 0 1 -1.26934,-0.39894 h -1.81334 v -9.67116 h 3.62668 0.60445 a 6.6247446,6.6247446 0 0 1 2.00677,-0.39894 1.4264961,1.4264961 0 0 1 1.61991,1.60784 v 1.20888 q 0.60445,-3.62667 5.44003,-3.62667 4.83558,0 4.83558,4.83557 1.2089,-7.25337 9.06672,-3.62668 1.20889,0 1.20889,-3.62669 z m 41.70689,-1.20889 h 3.62668 v 13.29785 q 0.60445,1.20889 0,1.20889 h -3.02224 -3.62668 q -2.41779,0 -3.62668,-3.02224 a 2.7321027,2.7321027 0 0 0 -2.34526,-2.16392 2.8892591,2.8892591 0 0 0 -1.28143,0.35057 h -2.41779 l -1.81335,1.2089 q 0.60445,2.4178 2.4178,2.4178 1.81334,0 3.02223,-1.2089 1.20889,-1.2089 1.81334,0 a 5.7422514,5.7422514 0 0 1 0.19343,1.34187 0.84622651,0.84622651 0 0 1 -0.79788,1.07592 q -1.20889,0 -3.62668,0.60444 -2.41779,0.60445 -4.83557,-1.81333 -2.4178,-2.4178 -1.81335,-6.04449 0.60445,-3.62667 5.44003,-3.62667 4.83557,0 5.44002,4.83557 -0.60445,-2.41778 1.81335,-3.62668 2.41779,-1.20889 4.83557,0 0.60446,0 0.60446,-2.41779 z m 25.99123,14.50674 v -13.29785 h 3.6267 v 10.88006 h 4.83557 q 2.41779,-4.83559 6.04448,-3.62669 a 1.9221431,1.9221431 0 0 0 1.54738,-1.03965 3.4574398,3.4574398 0 0 0 -2.75628,-1.37813 q -2.41779,0 -3.02223,1.20888 a 4.5575342,4.5575342 0 0 1 -0.15716,-1.10008 1.8496093,1.8496093 0 0 1 1.36605,-1.92215 q 1.81334,-0.60444 4.23113,-0.60444 2.4178,0 3.02225,1.20889 0.60444,1.2089 0.60444,8.46227 0.60444,1.20889 0,1.20889 h -3.02224 q -0.60445,-1.20889 -2.41779,0 -1.81334,2.41779 -4.23113,0 z m -47.75135,-10.88005 h 1.2089 q 1.81334,1.20889 1.81334,8.46226 v 3.02223 q 0,0.60445 -1.81334,-0.60444 -1.81335,1.20889 -1.81335,-2.41779 a 4.8839358,4.8839358 0 0 0 -1.26934,-5.04109 1.0275608,1.0275608 0 0 0 -0.544,0.2055 h -1.20889 v 4.83559 a 1.7891647,1.7891647 0 0 1 0.19343,0.80995 2.3210784,2.3210784 0 0 1 -0.79788,1.60784 q -1.20889,1.20889 -1.81334,0 -1.2089,0 -1.2089,-3.62669 a 6.1290977,6.1290977 0 0 0 0.19343,-1.47485 2.9013481,2.9013481 0 0 0 -0.79786,-2.15184 q -1.20891,-1.20888 -2.4178,0 v 6.04449 q 0.39893,1.60783 -0.54401,1.60783 a 3.1189492,3.1189492 0 0 1 -1.26933,-0.39894 h -1.81335 v -8.46226 q -1.20889,-1.2089 0,-1.2089 1.20889,0 3.02224,-1.20889 0.60445,1.20889 4.23113,0 l 1.81334,1.20889 q 0.60445,1.2089 1.2089,1.2089 0.60445,0 1.81335,-1.2089 1.20888,-1.20889 1.81333,-1.20889 z m -107.59165,4.83557 0.60445,1.20889 q 0,1.2089 -0.60445,2.4178 v 3.02223 q 0,0.60445 -1.81334,-0.60444 -1.81334,1.20889 -1.81334,-2.41779 a 4.8839358,4.8839358 0 0 0 -1.26935,-5.04109 1.0275608,1.0275608 0 0 0 -0.544,0.2055 h -1.2089 v 6.04449 q 0.39894,1.60783 -0.544,1.60783 a 3.1189492,3.1189492 0 0 1 -1.26934,-0.39894 h -1.81333 v -8.46226 q -1.2089,-1.2089 0,-1.2089 1.20888,0 3.02223,-1.20889 a 1.208895,1.208895 0 0 0 1.06383,0.80995 1.6682752,1.6682752 0 0 0 0.74951,-0.20551 q 1.2089,-0.60444 3.62669,0.60445 0.60444,1.2089 1.20889,1.2089 l 1.2089,-1.2089 q 1.20889,-1.20889 2.41779,-1.20889 3.62668,0 3.62668,8.46226 0,3.62668 -1.81334,2.41779 a 4.1585989,4.1585989 0 0 1 -1.61992,0.80995 0.18133425,0.18133425 0 0 1 -0.19342,-0.20551 v -3.02223 a 4.2553105,4.2553105 0 0 0 -1.68037,-5.04109 1.6682752,1.6682752 0 0 0 -0.73742,0.2055 q -0.60445,0 -0.60445,1.2089 z m -22.969,-8.46226 h 1.81334 2.41779 q 2.41779,0 2.41779,0.60444 v 3.02225 a 1.5836525,1.5836525 0 0 1 0.19341,0.67697 0.6286254,0.6286254 0 0 1 -0.79786,0.53192 1.934232,1.934232 0 0 1 -1.81334,-1.20889 q -1.2089,-2.4178 -3.62669,0 a 1.208895,1.208895 0 0 0 -0.68906,0.90666 2.4298789,2.4298789 0 0 0 1.89796,1.51113 q 3.62668,-1.2089 5.44002,2.41778 a 5.1257148,5.1257148 0 0 1 0.60444,2.28482 4.5575342,4.5575342 0 0 1 -2.41778,3.75966 q -1.20889,1.20889 -4.83558,1.20889 -3.62669,0 -4.83558,-2.41778 a 5.7422514,5.7422514 0 0 1 -0.20552,-1.34188 0.84622651,0.84622651 0 0 1 0.80997,-1.07592 15.3167,15.3167 0 0 0 5.10154,1.60783 0.95502706,0.95502706 0 0 0 0.94293,-0.39893 1.1484502,1.1484502 0 0 0 0.79788,-0.80996 4.0256204,4.0256204 0 0 0 -3.21566,-1.60784 l -1.81334,-1.20889 a 2.1518331,2.1518331 0 0 1 -2.72001,-2.04303 5.1257148,5.1257148 0 0 1 0.30221,-1.58365 q 1.20889,-3.62669 4.23114,-4.83558 z m 207.32549,3.62669 h 2.41779 l -5.44003,13.29784 q 0,1.20889 -3.62668,1.20889 a 0.15715635,0.15715635 0 0 1 -0.20552,-0.13297 2.5265905,2.5265905 0 0 1 0.80996,-1.07592 q 0.60445,-1.2089 0.60445,-2.41779 l -4.23113,-10.88005 h 3.62668 l 2.4178,7.25336 1.81333,-4.83557 q 0,-2.41779 1.81335,-2.41779 z m -149.90298,6.04446 h -4.83558 -2.4178 a 1.0759165,1.0759165 0 0 0 -0.60444,0.80997 2.9859706,2.9859706 0 0 0 2.41779,1.60783 q 1.2089,1.2089 2.41779,0 a 4.0256204,4.0256204 0 0 1 2.13974,-0.80996 1.9221431,1.9221431 0 0 1 0.8825,0.20551 q 1.20889,0.60445 0,3.02224 a 16.00577,16.00577 0 0 1 -4.64216,0.80995 5.7785181,5.7785181 0 0 1 -5.63345,-3.22774 q -1.2089,-3.62669 0.60445,-6.04447 1.81334,-2.41779 4.83558,-2.41779 2.41779,0 3.62668,2.41779 1.2089,2.41778 1.2089,3.62667 z m 162.77771,-1.71663 a 4.4970895,4.4970895 0 0 0 -5.62136,-4.32783 q -3.02223,0 -4.83558,2.41779 -1.81334,2.41778 -0.60444,4.83557 a 5.6455397,5.6455397 0 0 0 5.97192,4.31576 15.848613,15.848613 0 0 0 4.30367,-0.68907 v -1.20889 q 0,-1.2089 -3.62667,-1.2089 -3.02225,0 -3.02225,-1.2089 a 2.9617928,2.9617928 0 0 1 -0.1088,-0.70116 q 0,-0.90667 0.90668,-0.90667 a 4.6421569,4.6421569 0 0 1 1.61991,0.39893 h 2.4178 2.41779 a 8.8007557,8.8007557 0 0 0 0.18133,-1.71663 z m -54.58161,-4.32783 h 0.60444 q 3.02225,0 4.23114,1.20889 1.20889,1.2089 1.20889,7.25337 a 3.0705933,3.0705933 0 0 1 0.0968,0.73743 1.9463209,1.9463209 0 0 1 -2.5145,1.68036 h -4.23114 a 3.7113077,3.7113077 0 0 1 -3.77175,-2.82882 3.7233966,3.7233966 0 0 1 0.74951,-2.00677 3.8321972,3.8321972 0 0 1 3.21566,-1.60782 7.0599469,7.0599469 0 0 1 2.22437,0.39893 1.6440973,1.6440973 0 0 0 1.36605,-0.25387 3.7113077,3.7113077 0 0 0 -1.97049,-0.95503 q -3.62668,-1.20888 -4.23113,0 a 3.9530867,3.9530867 0 0 1 -0.49565,-1.70453 2.683747,2.683747 0 0 1 3.51788,-1.92214 z m -102.75608,10.88005 v -13.29785 h 4.23114 0.60445 q 0.60445,0 1.20888,-1.20889 3.02225,0 5.44004,3.62669 a 8.6677772,8.6677772 0 0 1 1.60783,4.83557 7.6039497,7.6039497 0 0 1 -0.39895,2.41779 q -1.20888,3.62669 -12.69339,3.62669 z m -32.03572,3.62668 v -12.08894 q -1.20889,-1.2089 0,-1.2089 1.20891,0 3.02225,-1.20889 0.60444,1.20889 3.62667,0 3.02225,0 4.23113,3.62667 a 7.2291922,7.2291922 0 0 1 0.39895,2.28482 5.1498928,5.1498928 0 0 1 -1.60783,3.75967 2.5870353,2.5870353 0 0 1 -2.41779,1.60783 4.9443807,4.9443807 0 0 1 -1.81335,-0.39894 1.9584099,1.9584099 0 0 0 -1.01547,-0.39894 1.2330729,1.2330729 0 0 0 -0.79787,1.60783 v 1.2089 q 0.39894,1.60782 -0.544,1.60782 a 3.1189492,3.1189492 0 0 1 -1.26934,-0.39893 z m 11.48451,-3.62668 v -14.50674 h 3.62668 v 13.29785 q 0.39894,1.60783 -0.54401,1.60783 a 3.1189492,3.1189492 0 0 1 -1.26932,-0.39894 z m 178.91646,-10.88005 h 2.41779 a 0.6286254,0.6286254 0 0 0 0.53192,0.80995 1.5836525,1.5836525 0 0 0 0.67698,-0.20551 q 1.20889,-0.60444 2.41778,-0.60444 0.60445,0 0.60445,2.41779 a 0.72533701,0.72533701 0 0 1 0.0846,0.3264 2.8046365,2.8046365 0 0 1 -3.10685,0.88248 h -1.2089 v 6.04449 q -0.60445,1.20889 -3.02224,1.20889 v -8.46226 q -1.2089,-2.41779 0.60445,-2.41779 z m -144.46296,10.88005 v -10.88005 h 3.6267 v 9.67116 q 0.39893,1.60783 -0.54401,1.60783 a 3.1189492,3.1189492 0 0 1 -1.26934,-0.39894 z m 80.39153,0 v -10.88005 h 3.62668 v 9.67116 q 0.39894,1.60783 -0.54399,1.60783 a 3.1189492,3.1189492 0 0 1 -1.26935,-0.39894 z m -149.29855,0 v -10.88005 h 3.6267 v 9.67116 q 0.39893,1.60783 -0.54401,1.60783 a 3.1189492,3.1189492 0 0 1 -1.26934,-0.39894 z m 58.63142,-10.88005 v 8.46226 a 8.2204862,8.2204862 0 0 0 2.9497,0.68907 3.384906,3.384906 0 0 0 3.09478,-4.31576 q 0.60444,-2.41778 -1.81335,-4.23113 -2.41778,-1.81334 -4.23113,-0.60444 z m -30.22238,2.41779 q -1.81334,0 -1.81334,0.60445 v 1.81333 2.41779 q 1.2089,4.83558 3.62669,0 a 4.9202027,4.9202027 0 0 0 0.60445,-2.15184 2.8892591,2.8892591 0 0 0 -2.4178,-2.68373 z m 114.84503,0 a 2.2606337,2.2606337 0 0 0 -2.72001,2.38151 6.8665237,6.8665237 0 0 0 0.30222,1.84962 2.4782348,2.4782348 0 0 0 1.6441,2.27272 2.9859706,2.9859706 0 0 0 1.98259,-1.66828 v -2.41779 q 0.60444,-2.41778 -1.2089,-2.41778 z m -140.83626,-6.04448 h 0.60444 a 2.3210784,2.3210784 0 0 1 0.79787,1.60783 1.7891647,1.7891647 0 0 1 -0.19342,0.80996 0.45938011,0.45938011 0 0 1 -0.30223,0.60444 1.692453,1.692453 0 0 1 -0.90666,-0.60444 q -1.81335,1.2089 -2.41781,0 -0.60444,-1.2089 0,-2.41779 z m 146.88074,0 h 3.02223 a 2.3210784,2.3210784 0 0 1 0.79788,1.60783 1.7891647,1.7891647 0 0 1 -0.19343,0.80996 q 0,1.2089 -1.2089,0 -1.81334,1.2089 -2.41778,0 -0.60445,-1.2089 0,-2.41779 z m -80.39153,0 h 3.02224 a 2.3210784,2.3210784 0 0 1 0.79787,1.60783 1.7891647,1.7891647 0 0 1 -0.19341,0.80996 q 0,1.2089 -1.2089,0 -1.81335,1.2089 -2.4178,0 -0.60444,-1.2089 0,-2.41779 z m -24.78234,6.04448 q 4.83558,1.20888 0,2.41778 h -1.81335 q -1.20889,-1.2089 0,-2.41778 1.2089,-1.2089 1.81335,0 z m 87.64489,0 q 4.83557,1.20888 0,2.41778 h -1.81335 a 1.7891647,1.7891647 0 0 1 -0.20551,-0.80996 2.3210784,2.3210784 0 0 1 0.80996,-1.60782 1.692453,1.692453 0 0 1 0.90668,-0.60446 0.45938011,0.45938011 0 0 1 0.30222,0.60446 z m 74.95149,0 q 4.83557,1.20888 0,2.41778 h -1.81335 a 1.7891647,1.7891647 0 0 1 -0.2055,-0.80996 2.3210784,2.3210784 0 0 1 0.80996,-1.60782 q 1.20889,-1.2089 1.20889,0 z m -120.28506,0 q 4.83559,1.20888 0,2.41778 h -1.81334 q -1.81334,0 1.81334,-2.41778 z m 97.31605,3.62667 h 3.02224 a 3.167305,3.167305 0 0 1 0.39894,1.34188 1.2451619,1.2451619 0 0 1 -1.60784,1.07592 q -1.81334,0 -2.41778,-0.60445 a 0.64071436,0.64071436 0 0 1 -0.20551,-0.47147 2.2001889,2.2001889 0 0 1 0.80995,-1.34188 z m -25.99124,0 h 3.02224 a 3.167305,3.167305 0 0 1 0.39893,1.34188 1.2451619,1.2451619 0 0 1 -1.60783,1.07592 q -1.81334,0 -2.41779,-0.60445 a 0.64071436,0.64071436 0 0 1 -0.20551,-0.47147 2.2001889,2.2001889 0 0 1 0.80996,-1.34188 z"
     id="path1-8"
     style="font-size:12px;fill:#000000;fill-rule:evenodd;stroke:#000000;stroke-width:0.989351;stroke-linecap:round;stroke-dasharray:none" /></svg>
