<?xml version="1.0" encoding="UTF-8" standalone="no"?>
<svg
   viewBox="0 0 640 640"
   version="1.1"
   id="svg1"
   sodipodi:docname="vulkan.svg"
   inkscape:version="1.4.2 (ebf0e940, 2025-05-08)"
   xmlns:inkscape="http://www.inkscape.org/namespaces/inkscape"
   xmlns:sodipodi="http://sodipodi.sourceforge.net/DTD/sodipodi-0.dtd"
   xmlns="http://www.w3.org/2000/svg"
   xmlns:svg="http://www.w3.org/2000/svg">
  <defs
     id="defs1" />
  <sodipodi:namedview
     id="namedview1"
     pagecolor="#ffffff"
     bordercolor="#000000"
     borderopacity="0.25"
     inkscape:showpageshadow="2"
     inkscape:pageopacity="0.0"
     inkscape:pagecheckerboard="0"
     inkscape:deskcolor="#d1d1d1"
     inkscape:zoom="0.54784828"
     inkscape:cx="196.22221"
     inkscape:cy="65.711624"
     inkscape:window-width="1440"
     inkscape:window-height="847"
     inkscape:window-x="527"
     inkscape:window-y="1465"
     inkscape:window-maximized="0"
     inkscape:current-layer="svg1" />
  <!--!Font Awesome Free 7.0.0 by @fontawesome - https://fontawesome.com License - https://fontawesome.com/license/free Copyright 2025 Fonticons, Inc.-->
  <path
     style="fill:#000000;stroke-width:7.61774"
     d="M 271.50424,566.97753 C 255.74312,517.95385 205.52901,362.78212 198.89304,342.5946 l -9.05035,-27.53269 5.84738,-4.12072 c 9.66198,-6.80899 44.53933,-16.62172 71.36084,-20.07737 l 25.20279,-3.24714 1.73159,2.80173 c 0.95229,1.54085 10.70233,31.30334 21.66665,66.13871 10.96433,34.83537 20.78583,62.41872 21.82564,61.29633 1.03975,-1.12241 10.60873,-29.25043 21.26435,-62.50664 10.65564,-33.2563 19.78255,-60.89867 20.2819,-61.42766 3.26542,-3.45863 103.34425,18.07861 103.34425,22.23996 0,1.59912 -18.84517,59.44332 -41.87813,128.54258 L 398.61181,570.33673 H 335.59806 272.5842 Z m -101.295,-98.75748 C 93.437336,433.8355 32.814026,385.78255 11.445008,342.37591 L 2.7189302,324.65077 1.7227944,304.92435 0.72665874,285.19804 8.9357342,268.54045 C 38.508929,208.53154 125.68107,175.29268 253.48734,175.29268 c 120.27042,0 217.65317,27.72199 309.99337,88.2458 l 28.70887,18.81699 25.03864,24.67963 c 13.77886,13.58132 23.60863,25.23312 21.85869,25.91033 -1.74896,0.67722 -12.63282,-3.16747 -24.18636,-8.54307 C 545.05116,291.9031 489.20456,274.33475 412.49637,260.7296 l -47.02902,-8.34121 -51.06014,-0.1104 -51.06013,-0.11125 -26.63927,5.77959 c -15.59912,3.38434 -35.95009,10.24719 -49.10535,16.55948 l -22.46601,10.77994 -15.01222,14.19799 c -8.25671,7.8088 -18.17579,20.247 -22.04239,27.64025 l -7.03016,13.44237 -0.0677,20.2118 -0.0677,20.2118 9.07439,18.75513 9.07437,18.75507 30.65194,30.23295 c 16.85858,16.6282 29.10093,30.15976 27.20517,30.07025 -1.89568,-0.0899 -13.9165,-4.85197 -26.71286,-10.58319 z M 498.49237,185.7187 c -12.56352,-5.68001 -34.67045,-14.24679 -49.12667,-19.0372 l -26.28399,-8.70978 1.50817,-6.79189 c 0.82949,-3.73561 7.39196,-24.9317 14.58334,-47.10257 l 13.07512,-40.310551 57.60293,-0.722925 57.60286,-0.722938 -21.9437,65.895784 c -12.0691,36.2426 -22.44586,66.33083 -23.05963,66.86272 -0.61399,0.5317 -11.39494,-3.68037 -23.95843,-9.36048 z M 124.09789,111.60188 C 117.55622,91.204711 111.35405,71.770916 110.31526,68.415588 l -1.88866,-6.100664 57.20825,0.725971 57.20825,0.725958 9.80876,30.904765 c 5.39483,16.997662 10.65938,33.625782 11.69914,36.951462 l 1.89035,6.04659 h -18.8551 c -17.70861,0 -76.82116,6.54919 -86.83903,9.62114 l -4.5554,1.39686 z"
     id="path5" />
</svg>
