<?xml version="1.0" encoding="UTF-8" standalone="no"?>
<svg
   viewBox="0 0 640 640"
   version="1.1"
   id="svg1"
   sodipodi:docname="rust-brands-solid-full copy.svg"
   inkscape:version="1.4.2 (ebf0e940, 2025-05-08)"
   xmlns:inkscape="http://www.inkscape.org/namespaces/inkscape"
   xmlns:sodipodi="http://sodipodi.sourceforge.net/DTD/sodipodi-0.dtd"
   xmlns="http://www.w3.org/2000/svg"
   xmlns:svg="http://www.w3.org/2000/svg">
  <defs
     id="defs1" />
  <sodipodi:namedview
     id="namedview1"
     pagecolor="#ffffff"
     bordercolor="#000000"
     borderopacity="0.25"
     inkscape:showpageshadow="2"
     inkscape:pageopacity="0.0"
     inkscape:pagecheckerboard="0"
     inkscape:deskcolor="#d1d1d1"
     inkscape:zoom="0.54784828"
     inkscape:cx="188.92092"
     inkscape:cy="682.67076"
     inkscape:window-width="1440"
     inkscape:window-height="1075"
     inkscape:window-x="566"
     inkscape:window-y="716"
     inkscape:window-maximized="0"
     inkscape:current-layer="svg1" />
  <!--!Font Awesome Free 7.0.0 by @fontawesome - https://fontawesome.com License - https://fontawesome.com/license/free Copyright 2025 Fonticons, Inc.-->
  <path
     style="fill:#000000;stroke-width:6.35478"
     d="M 283.19639,525.42138 C 270.04834,484.52546 228.15935,355.08002 222.62357,338.23944 l -7.54987,-22.96798 4.87793,-3.43754 c 8.0601,-5.68011 37.15505,-13.86596 59.52976,-16.74869 l 21.02436,-2.70879 1.4445,2.33722 c 0.79441,1.28539 8.92797,26.11349 18.07449,55.17342 9.14652,29.05993 17.33969,52.07017 18.20711,51.13386 0.86737,-0.93632 8.84988,-24.40093 17.73888,-52.14351 8.88902,-27.74266 16.50276,-50.80214 16.91932,-51.24342 2.72404,-2.88522 86.21056,15.08131 86.21056,18.55274 0,1.334 -15.72079,49.58807 -34.93506,107.2312 l -34.93506,104.8057 H 336.66394 284.0973 Z M 198.69533,443.03714 C 134.65162,414.35329 84.079194,374.26715 66.252997,338.057 l -7.279361,-14.78644 -0.830984,-16.45593 -0.830984,-16.45584 6.848073,-13.89589 c 24.670184,-50.05989 97.389849,-77.788 204.006809,-77.788 100.3305,0 181.56793,23.1259 258.59883,73.61532 l 23.94916,15.69728 20.88742,20.58793 c 11.49443,11.32964 19.6945,21.04966 18.23469,21.6146 -1.459,0.56494 -10.5384,-2.64233 -20.17645,-7.1267 -58.26889,-27.11113 -104.85655,-41.76678 -168.8471,-53.1163 l -39.23197,-6.9583 -42.59476,-0.0921 -42.59475,-0.0928 -22.22268,4.82138 c -13.0129,2.82324 -29.98984,8.54828 -40.96405,13.81404 l -18.74132,8.99271 -12.52331,11.84407 c -6.88781,6.51416 -15.16238,16.8902 -18.38793,23.05771 l -5.86461,11.21372 -0.0565,16.86084 -0.0565,16.86084 7.56992,15.64567 7.56991,15.64562 25.57008,25.22056 c 14.06356,13.87137 24.27622,25.1595 22.69476,25.08483 -1.58139,-0.075 -11.60925,-4.04755 -22.28407,-8.82858 z M 472.55161,207.37237 c -10.48058,-4.73831 -28.92235,-11.88478 -40.98184,-15.88098 l -21.9263,-7.26576 1.25812,-5.66585 c 0.69197,-3.11627 6.16643,-20.79821 12.16554,-39.29332 l 10.90736,-33.62737 48.0528,-0.60307 48.05275,-0.60308 -18.3056,54.97076 c -10.06814,30.23386 -18.72451,55.33369 -19.23652,55.77739 -0.5122,0.44355 -9.50575,-3.07019 -19.98631,-7.80858 z M 160.22889,145.54355 c -5.45711,-17.01547 -10.63101,-33.22729 -11.49757,-36.02633 l -1.57554,-5.08922 47.72356,0.60561 47.72356,0.6056 8.18254,25.78099 c 4.50041,14.17958 8.89213,28.05088 9.75951,30.82519 l 1.57694,5.04411 h -15.72906 c -14.77266,0 -64.0848,5.46339 -72.44178,8.02603 l -3.80015,1.16527 z"
     id="path5" />
</svg>
